<?xml version="1.0" standalone="no"?>
<!DOCTYPE svg PUBLIC "-//W3C//DTD SVG 20010904//EN"
 "http://www.w3.org/TR/2001/REC-SVG-20010904/DTD/svg10.dtd">
<svg version="1.0" xmlns="http://www.w3.org/2000/svg"
 width="512.000000pt" height="512.000000pt" viewBox="0 0 512.000000 512.000000"
 preserveAspectRatio="xMidYMid meet">
<metadata>
Created by potrace 1.14, written by Peter Selinger 2001-2017
</metadata>
<g transform="translate(0.000000,512.000000) scale(0.100000,-0.100000)"
fill="#000000" stroke="none">
<path d="M2647 4444 c-1 -1 -38 -5 -82 -8 -44 -4 -93 -9 -110 -11 -16 -3 -43
-7 -59 -10 -16 -2 -50 -7 -75 -11 -25 -4 -55 -9 -66 -11 -11 -3 -29 -6 -40 -8
-38 -6 -260 -64 -340 -89 -483 -150 -867 -410 -982 -666 -47 -104 -61 -210
-41 -308 16 -77 82 -202 152 -285 35 -43 67 -90 70 -105 20 -93 -54 -161 -171
-156 -118 4 -312 95 -447 207 -97 81 -135 99 -202 99 -131 1 -197 -83 -229
-287 -3 -16 -9 -57 -14 -90 -24 -153 5 -535 46 -620 41 -83 133 -132 221 -119
41 6 63 19 175 101 112 82 370 183 465 183 74 0 139 -27 191 -78 32 -33 41
-47 31 -50 -8 -3 -55 -25 -105 -49 -174 -86 -284 -183 -342 -301 -31 -63 -37
-86 -41 -157 -4 -77 8 -165 29 -205 4 -8 14 -31 23 -50 88 -205 372 -433 696
-560 217 -85 436 -124 690 -123 159 0 209 6 425 48 118 23 390 132 525 211
l55 32 305 5 c168 3 316 7 330 10 14 3 52 8 85 12 298 32 668 142 940 278 138
69 275 152 308 188 31 33 35 78 12 119 -22 39 -18 92 10 130 32 43 41 90 23
123 -7 14 -42 46 -77 72 -94 69 -174 153 -234 247 -67 102 -87 142 -121 238
-50 137 -65 230 -71 445 -3 83 -7 164 -9 180 -36 253 -65 359 -144 514 -77
150 -142 241 -278 386 -228 242 -646 454 -989 500 -22 3 -51 8 -65 10 -69 12
-150 18 -303 19 -92 2 -168 1 -170 0z"/>
</g>
</svg>
